<svg width="121" height="32" viewBox="0 0 121 32" fill="none" xmlns="http://www.w3.org/2000/svg">
<path d="M37.7483 26.5245C36.9135 26.5245 36.4961 26.7955 36.4961 27.3373C36.4961 27.8792 36.9135 28.1538 37.7483 28.1538C38.583 28.1538 39.0096 27.881 39.0096 27.3373C39.0096 26.7936 38.5885 26.5245 37.7483 26.5245ZM37.9753 30.0302C37.4169 30.0302 37.0087 30.0833 36.7524 30.1895C36.4961 30.2957 36.3679 30.4696 36.3679 30.7094C36.3679 30.9492 36.4961 31.1103 36.7505 31.2257C37.005 31.341 37.3492 31.3977 37.783 31.3977C38.757 31.3977 39.2457 31.1451 39.2457 30.6399C39.2457 30.2335 38.8229 30.0284 37.9771 30.0284M37.7501 25.9167C38.0375 25.9167 38.2956 25.9424 38.5245 25.9936L40.1281 25.9332V26.5135H39.4563C39.6375 26.7424 39.729 27.017 39.7309 27.3355C39.7309 27.7895 39.5606 28.1392 39.2201 28.3863C38.8778 28.6353 38.389 28.7579 37.7483 28.7579C37.4444 28.7579 37.1771 28.7323 36.9483 28.681L36.9226 28.9648C36.9171 29.1113 36.9629 29.2266 37.0618 29.3108C37.1606 29.395 37.2997 29.4371 37.4773 29.4371H38.0668C39.3409 29.4371 39.9762 29.8307 39.9762 30.6197C39.9762 31.0902 39.7748 31.438 39.3702 31.6632C38.9656 31.8884 38.4311 32 37.7666 32C37.102 32 36.5986 31.8865 36.2178 31.6595C35.837 31.4325 35.6448 31.114 35.6448 30.7039C35.6448 30.1584 35.9267 29.8014 36.4888 29.6275V29.5854C36.4064 29.5634 36.3332 29.503 36.2727 29.4042C36.2123 29.3071 36.183 29.2028 36.183 29.0893C36.183 28.8312 36.2672 28.6426 36.4357 28.5254V28.4815C35.9945 28.2344 35.773 27.8499 35.773 27.3282C35.773 26.8815 35.9432 26.5319 36.2801 26.2829C36.6187 26.0339 37.1075 25.9094 37.7464 25.9094" fill="#00C9D4"/>
<path d="M41.5432 25.9954H42.2663L42.2755 26.5977H42.3908C42.6544 26.162 43.1359 25.9442 43.8316 25.9442C44.0384 25.9442 44.2306 25.9643 44.4082 26.0046V26.6746C44.1959 26.6526 44.0055 26.6398 43.8407 26.6398C42.8082 26.6398 42.292 27.1195 42.292 28.0769V30.3305H41.5432V25.9936V25.9954Z" fill="#00C9D4"/>
<path d="M46.4457 29.2925C46.7203 29.5872 47.1029 29.7336 47.5899 29.7336C48.0769 29.7336 48.4613 29.5872 48.7414 29.2925C49.0215 28.9977 49.1606 28.6224 49.1606 28.1629C49.1606 27.7034 49.0215 27.3282 48.7414 27.0353C48.4613 26.7423 48.0787 26.5959 47.5899 26.5959C47.1011 26.5959 46.7203 26.7423 46.4457 27.0353C46.1693 27.3282 46.032 27.7034 46.032 28.1629C46.032 28.6224 46.1693 28.9977 46.4457 29.2925ZM45.9148 26.5428C46.3432 26.1199 46.9016 25.9076 47.5899 25.9076C48.2782 25.9076 48.8366 26.1199 49.265 26.5428C49.6933 26.9657 49.9075 27.5057 49.9075 28.1648C49.9075 28.8238 49.6933 29.362 49.265 29.7849C48.8366 30.206 48.2782 30.4165 47.5899 30.4165C46.9016 30.4165 46.3432 30.206 45.9148 29.7849C45.4865 29.3639 45.2723 28.8238 45.2723 28.1648C45.2723 27.5057 45.4865 26.9657 45.9148 26.5428Z" fill="#00C9D4"/>
<path d="M50.8778 25.9955H51.6814L52.8952 29.6165H53.2045L54.4732 25.9955H55.7602L57.0288 29.6165H57.3382L58.5519 25.9955H59.3263L57.8544 30.3305H56.5162L55.2402 26.6911H54.9766L53.6988 30.3305H52.3569L50.8778 25.9955Z" fill="#00C9D4"/>
<path d="M60.2123 25.9954H61.1625L61.2101 24.6151H61.9021V25.9954H63.7602V26.6673H61.9021V28.5254C61.9021 28.9556 61.9771 29.2613 62.1272 29.4444C62.2773 29.6275 62.5556 29.7172 62.9602 29.7172C63.2348 29.7172 63.5094 29.6989 63.7821 29.6604V30.3048C63.5405 30.3561 63.2384 30.3817 62.8741 30.3817C62.2407 30.3817 61.7959 30.2389 61.5432 29.9515C61.2888 29.6641 61.1625 29.2156 61.1625 28.606V26.6655H60.2123V25.9936V25.9954Z" fill="#00C9D4"/>
<path d="M65.1808 23.925H65.9295V26.541H65.9991C66.3121 26.1199 66.8119 25.9094 67.5002 25.9094C68.0714 25.9094 68.5236 26.0705 68.8586 26.3927C69.1918 26.7149 69.3583 27.1671 69.3583 27.7492V30.3304H68.6188V27.9689C68.6188 27.0591 68.1812 26.605 67.3062 26.605C66.8961 26.605 66.5648 26.7369 66.3103 27.0005C66.0577 27.2641 65.9295 27.5991 65.9295 28.0018V30.3286H65.1808V23.9231V23.925Z" fill="#00C9D4"/>
<path d="M73.5561 25.9954H74.2792L74.2883 26.5593H74.3652C74.6947 26.1236 75.189 25.9076 75.8444 25.9094C76.5785 25.9094 77.1021 26.173 77.4151 26.7003H77.5323C77.6787 26.4586 77.8947 26.2682 78.1821 26.1236C78.4696 25.9808 78.8046 25.9094 79.189 25.9094C79.7712 25.9094 80.2288 26.0705 80.5638 26.3927C80.8988 26.7149 81.0654 27.1671 81.0654 27.7492V30.3305H80.3259V27.9689C80.3259 27.0591 79.8975 26.6051 79.0389 26.6051C78.6233 26.6051 78.2956 26.7259 78.0558 26.9657C77.816 27.2073 77.6915 27.5314 77.6787 27.9414V30.3286H76.9391V27.9671C76.9391 27.0572 76.5108 26.6032 75.654 26.6032C75.2549 26.6032 74.9309 26.735 74.6819 26.9986C74.4329 27.2623 74.3066 27.5973 74.3066 28V30.3268H73.5579V25.99L73.5561 25.9954Z" fill="#00C9D4"/>
<path d="M84.4449 29.741C84.8659 29.741 85.2229 29.6385 85.514 29.4353C85.805 29.2321 85.9497 28.9831 85.9497 28.6902V28.3973L84.2929 28.4357C83.6357 28.4412 83.308 28.6554 83.308 29.0764C83.308 29.3236 83.4069 29.4957 83.6028 29.5927C83.7986 29.6897 84.0787 29.7391 84.4449 29.7391M84.681 25.9057C85.3639 25.9057 85.8691 26.0375 86.1968 26.3012C86.5263 26.5648 86.6893 26.9712 86.6893 27.5186V30.3268H85.9753L85.9661 29.7629H85.8581C85.5597 30.1785 85.0252 30.3872 84.2581 30.3872C83.7474 30.3872 83.3373 30.281 83.0279 30.0668C82.7185 29.8526 82.5629 29.5378 82.5629 29.1185C82.5629 28.2893 83.1121 27.8645 84.2105 27.8407L85.9478 27.8151V27.579C85.9478 27.2147 85.8435 26.9529 85.6366 26.7936C85.4279 26.6343 85.0874 26.5556 84.6096 26.5556C84.0641 26.5556 83.5204 26.6087 82.9785 26.7149V26.1163C83.4545 25.9753 84.022 25.9057 84.6773 25.9057" fill="#00C9D4"/>
<path d="M88.4577 25.9954H89.1808L89.1899 26.5977H89.3053C89.5689 26.162 90.0503 25.9442 90.746 25.9442C90.9529 25.9442 91.1451 25.9643 91.3227 26.0046V26.6746C91.1103 26.6526 90.9217 26.6398 90.7551 26.6398C89.7227 26.6398 89.2064 27.1195 89.2064 28.0769V30.3305H88.4577V25.9936V25.9954Z" fill="#00C9D4"/>
<path d="M95.784 25.9954H96.6645L94.8412 28.1373L96.7249 30.3304H95.8261L94.2609 28.4906H93.3876V30.3304H92.6389V23.925H93.3876V27.8188H94.2352L95.784 25.9954Z" fill="#00C9D4"/>
<path d="M99.6412 26.5593C99.2311 26.5593 98.9034 26.6746 98.6563 26.9071C98.4092 27.1396 98.2572 27.4472 98.2005 27.828H101.034C101 27.4417 100.866 27.1323 100.633 26.9035C100.401 26.6746 100.07 26.5593 99.6394 26.5593M99.6485 25.9094C100.306 25.9094 100.822 26.1126 101.199 26.519C101.576 26.9254 101.765 27.4454 101.765 28.0788C101.765 28.1611 101.759 28.2801 101.748 28.4321H98.1913C98.2865 29.3236 98.8961 29.7703 100.024 29.7703C100.494 29.7703 100.963 29.7062 101.43 29.5762V30.1822C101.014 30.3396 100.509 30.4183 99.9158 30.4183C99.0975 30.4183 98.4806 30.2133 98.065 29.8032C97.6476 29.3932 97.4389 28.8458 97.4389 28.1648C97.4389 27.4838 97.6403 26.9675 98.043 26.5447C98.4458 26.1218 98.9822 25.9094 99.6504 25.9094" fill="#00C9D4"/>
<path d="M102.709 25.9954H103.659L103.707 24.6151H104.399V25.9954H106.257V26.6673H104.399V28.5254C104.399 28.9556 104.474 29.2613 104.624 29.4444C104.774 29.6275 105.053 29.7172 105.457 29.7172C105.732 29.7172 106.006 29.6989 106.279 29.6604V30.3048C106.037 30.3561 105.735 30.3817 105.371 30.3817C104.738 30.3817 104.293 30.2389 104.04 29.9515C103.786 29.6641 103.659 29.2156 103.659 28.606V26.6655H102.709V25.9936V25.9954Z" fill="#00C9D4"/>
<path d="M107.678 25.9954H108.427V30.3323H107.678V25.9954ZM108.057 24.1794C108.203 24.1794 108.324 24.2252 108.419 24.3167C108.514 24.4082 108.56 24.5272 108.56 24.6737C108.56 24.8201 108.513 24.9391 108.419 25.0307C108.324 25.1222 108.205 25.168 108.057 25.168C107.908 25.168 107.782 25.1222 107.687 25.0307C107.592 24.9391 107.544 24.8201 107.544 24.6737C107.544 24.5272 107.592 24.4082 107.687 24.3167C107.782 24.2252 107.905 24.1794 108.057 24.1794Z" fill="#00C9D4"/>
<path d="M110.228 25.9954H110.951L110.96 26.5593H111.037C111.367 26.1236 111.87 25.9076 112.547 25.9094C113.118 25.9094 113.571 26.0705 113.906 26.3927C114.239 26.7149 114.405 27.1671 114.405 27.7492V30.3305H113.666V27.9689C113.666 27.0591 113.228 26.6051 112.353 26.6051C111.943 26.6051 111.612 26.7369 111.357 27.0005C111.105 27.2641 110.977 27.5991 110.977 28.0019V30.3286H110.228V25.9918V25.9954Z" fill="#00C9D4"/>
<path d="M118.048 26.5245C117.214 26.5245 116.796 26.7955 116.796 27.3373C116.796 27.8792 117.214 28.1538 118.048 28.1538C118.883 28.1538 119.31 27.881 119.31 27.3373C119.31 26.7936 118.889 26.5245 118.048 26.5245ZM118.275 30.0302C117.717 30.0302 117.309 30.0833 117.053 30.1895C116.796 30.2957 116.668 30.4696 116.668 30.7094C116.668 30.9492 116.796 31.1103 117.051 31.2257C117.305 31.341 117.651 31.3977 118.083 31.3977C119.059 31.3977 119.546 31.1451 119.546 30.6399C119.546 30.2335 119.123 30.0284 118.277 30.0284M118.05 25.9167C118.338 25.9167 118.596 25.9424 118.825 25.9936L120.428 25.9332V26.5135H119.756C119.938 26.7424 120.029 27.017 120.031 27.3355C120.031 27.7895 119.861 28.1392 119.52 28.3863C119.18 28.6353 118.689 28.7579 118.048 28.7579C117.745 28.7579 117.477 28.7323 117.248 28.681L117.223 28.9648C117.217 29.1113 117.263 29.2266 117.362 29.3108C117.461 29.395 117.6 29.4371 117.778 29.4371H118.367C119.641 29.4371 120.276 29.8307 120.276 30.6197C120.276 31.0902 120.075 31.438 119.67 31.6632C119.266 31.8884 118.731 32 118.067 32C117.402 32 116.899 31.8865 116.518 31.6595C116.137 31.4325 115.945 31.114 115.945 30.7039C115.945 30.1584 116.227 29.8014 116.789 29.6275V29.5854C116.707 29.5634 116.633 29.503 116.573 29.4042C116.513 29.3071 116.483 29.2028 116.483 29.0893C116.483 28.8312 116.567 28.6426 116.736 28.5254V28.4815C116.295 28.2344 116.073 27.8499 116.073 27.3282C116.073 26.8815 116.242 26.5319 116.58 26.2829C116.919 26.0339 117.408 25.9094 118.047 25.9094" fill="#00C9D4"/>
<path d="M8.48146 25.1497C8.9849 24.357 9.4151 23.4966 9.79588 22.6014L11.3336 23.2183C10.3762 24.1648 9.33272 24.9519 8.19222 25.5817C8.28924 25.4407 8.38627 25.2979 8.47963 25.1515M10.768 19.9671C11.092 18.9657 11.3794 17.9643 11.654 17.0087C12.3039 14.7368 13.0252 12.216 13.924 11.319L16.5162 14.9584C15.6064 17.0453 14.5611 19.1286 13.2467 20.9593L10.768 19.9671ZM15.9341 22.0357C18.0046 18.9785 19.3922 15.4856 20.6462 12.3295C22.5318 7.58078 23.9231 4.35332 26.1986 3.28055V23.6888L21.1533 16.6041C20.7231 17.5762 20.2636 18.5501 19.7584 19.5094L23.8041 25.1881L15.9359 22.0357H15.9341ZM29.0124 0L27.5185 0.097025C22.3304 0.432036 20.2362 5.70984 18.0174 11.2989C17.9405 11.4911 17.8654 11.6833 17.7867 11.8773L15.103 8.10984L14.2938 8.18123C11.1616 8.46133 10.0796 12.238 8.93547 16.238C7.4508 21.4243 6.06865 25.34 2.82654 26.4751V19.8096L5.42792 20.8513C5.827 19.9817 6.11259 19.1048 6.34325 18.1913L0 15.6503V30.3103C5.95698 30.3011 10.5776 28.3515 14.1437 24.3442L29.0124 30.3011V0Z" fill="url(#paint0_linear_36_8042)"/>
<path d="M57.6952 0.128143V4.1849H64.7798V17.622H57.6952V21.6805H76.3661V17.622H69.2814V4.1849H76.3661V0.128143H57.6952Z" fill="white"/>
<path d="M39.7016 4.19222H47.4801C49.0014 4.19222 50.2389 5.42975 50.2389 6.95103C50.2389 8.47231 49.0014 9.70984 47.4801 9.70984H39.7016V4.19222ZM53.0233 17.6146C51.6156 17.6146 50.6691 17.3291 49.406 15.7657L47.6192 13.7684C51.3172 13.6934 54.3048 10.6673 54.3048 6.95103C54.3048 3.23478 51.2439 0.126312 47.4801 0.126312H38.5593C36.9465 0.126312 35.6339 1.4389 35.6339 3.05171V21.6787H39.6998V13.7757H42.1327L46.281 18.3689C48.1721 20.6883 50.1913 21.6805 53.0215 21.6805H54.3011V17.6146H53.0215H53.0233Z" fill="white"/>
<path d="M94.0961 10.0503L85.1368 7.78581C84.3753 7.58627 83.8444 6.86499 83.8444 6.0302C83.8444 5.03432 84.6041 4.22334 85.5396 4.22334H98.4219V0.126312H85.5396C82.3634 0.126312 79.7803 2.77528 79.7803 6.02837C79.7803 8.73043 81.5652 11.0828 84.1409 11.7547L93.1002 14.0192C93.8599 14.2169 94.3927 14.94 94.3927 15.7748C94.3927 16.7707 93.6329 17.5817 92.6993 17.5817H79.7693V21.6787H92.6993C95.8755 21.6787 98.4586 19.0297 98.4586 15.7748C98.4586 13.0728 96.6737 10.7204 94.0979 10.0485" fill="white"/>
<path d="M101.787 0.128143V21.6805H120.439V17.5689H105.853V12.714H117.512V8.60046H105.853V4.23981H120.439V0.128143H101.787Z" fill="white"/>
<defs>
<linearGradient id="paint0_linear_36_8042" x1="0" y1="15.1542" x2="29.0124" y2="15.1542" gradientUnits="userSpaceOnUse">
<stop stop-color="#00C9D4"/>
<stop offset="0.98" stop-color="#FF007A"/>
<stop offset="1" stop-color="#FF007A"/>
</linearGradient>
</defs>
</svg>
